<svg width="0" height="0" class="hidden">
  <symbol fill="none" xmlns="http://www.w3.org/2000/svg" viewBox="0 0 41 40" id="Calling">
    <path opacity="0.4" d="M25.706 1C33.108 1.822 38.956 7.662 39.786 15.064" stroke="#FF5722" stroke-width="1.5" stroke-linecap="round" stroke-linejoin="round"></path>
    <path opacity="0.4" d="M25.706 8.086C29.248 8.774 32.016 11.544 32.706 15.086" stroke="#FF5722" stroke-width="1.5" stroke-linecap="round" stroke-linejoin="round"></path>
    <path fill-rule="evenodd" clip-rule="evenodd" d="M19.063 20.9448C27.041 28.9207 28.8509 19.6934 33.9305 24.7696C38.8276 29.6655 41.6444 30.6464 35.4376 36.8494C34.6605 37.474 29.7225 44.9885 12.3689 27.6393C-4.98681 10.288 2.52313 5.34489 3.14789 4.5679C9.36753 -1.65231 10.3336 1.17877 15.2308 6.07466C20.3083 11.153 11.0851 12.9688 19.063 20.9448Z" stroke="#FF5722" stroke-width="1.5" stroke-linecap="round" stroke-linejoin="round"></path>
  </symbol>
  <symbol fill="none" xmlns="http://www.w3.org/2000/svg" viewBox="0 0 24 24" id="linkedin">
    <g clip-path="url(#clip0_1_5)">
      <path d="M20.447 20.452H16.893V14.883C16.893 13.555 16.866 11.846 15.041 11.846C13.188 11.846 12.905 13.291 12.905 14.785V20.452H9.351V9H12.765V10.561H12.811C13.288 9.661 14.448 8.711 16.181 8.711C19.782 8.711 20.448 11.081 20.448 14.166V20.452H20.447ZM5.337 7.433C4.193 7.433 3.274 6.507 3.274 5.368C3.274 4.23 4.194 3.305 5.337 3.305C6.477 3.305 7.401 4.23 7.401 5.368C7.401 6.507 6.476 7.433 5.337 7.433ZM7.119 20.452H3.555V9H7.119V20.452ZM22.225 0H1.771C0.792 0 0 0.774 0 1.729V22.271C0 23.227 0.792 24 1.771 24H22.222C23.2 24 24 23.227 24 22.271V1.729C24 0.774 23.2 0 22.222 0H22.225Z" fill="#FF5722"></path>
    </g>
    <defs>
      <clipPath id="clip0_1_5">
        <rect width="24" height="24" fill="white"></rect>
      </clipPath>
    </defs>
  </symbol>
  <symbol fill="none" xmlns="http://www.w3.org/2000/svg" viewBox="0 0 33 39" id="Location">
    <path fill-rule="evenodd" clip-rule="evenodd" d="M1 16.3045C1.02881 7.82335 7.92752 0.971366 16.4087 1.00009C24.8899 1.029 31.7419 7.9277 31.7131 16.4089V16.5828C31.6087 22.0958 28.5304 27.1915 24.7565 31.1741C22.5982 33.4154 20.188 35.3995 17.5739 37.0871C16.8749 37.6918 15.8381 37.6918 15.1391 37.0871C11.2421 34.5506 7.82187 31.3482 5.03478 27.6263C2.5507 24.3807 1.14033 20.4414 1 16.3567V16.3045Z" stroke="#FF5722" stroke-width="1.5" stroke-linecap="round" stroke-linejoin="round"></path>
    <path opacity="0.4" d="M16.3565 21.5219C19.0747 21.5219 21.2783 19.3184 21.2783 16.6002C21.2783 13.882 19.0747 11.6784 16.3565 11.6784C13.6383 11.6784 11.4348 13.882 11.4348 16.6002C11.4348 19.3184 13.6383 21.5219 16.3565 21.5219Z" stroke="#FF5722" stroke-width="1.5" stroke-linecap="round" stroke-linejoin="round"></path>
  </symbol>
  <symbol fill="none" xmlns="http://www.w3.org/2000/svg" viewBox="0 0 41 36" id="Message">
    <path opacity="0.4" d="M31.5355 12.1223L23.0046 18.9908C21.3902 20.2565 19.127 20.2565 17.5126 18.9908L8.90847 12.1223" stroke="#FF5722" stroke-width="1.5" stroke-linecap="round" stroke-linejoin="round"></path>
    <path fill-rule="evenodd" clip-rule="evenodd" d="M10.7757 1H29.6316C32.3504 1.03049 34.9381 2.17986 36.792 4.1804C38.646 6.18095 39.6043 8.85806 39.4439 11.5882V24.644C39.6043 27.3742 38.646 30.0513 36.792 32.0518C34.9381 34.0524 32.3504 35.2017 29.6316 35.2322H10.7757C4.93593 35.2322 1 30.4813 1 24.644V11.5882C1 5.75089 4.93593 1 10.7757 1Z" stroke="#FF5722" stroke-width="1.5" stroke-linecap="round" stroke-linejoin="round"></path>
  </symbol>
  <symbol fill="none" xmlns="http://www.w3.org/2000/svg" viewBox="0 0 24 24" id="telegram">
    <g clip-path="url(#clip0_1_7)">
      <path d="M11.944 -1.66556e-06C8.77112 0.0148053 5.73324 1.28562 3.4949 3.53445C1.25656 5.78329 -3.4549e-05 8.82708 7.12435e-10 12C7.12441e-10 15.1826 1.26428 18.2348 3.51472 20.4853C5.76516 22.7357 8.8174 24 12 24C15.1826 24 18.2348 22.7357 20.4853 20.4853C22.7357 18.2348 24 15.1826 24 12C24 8.8174 22.7357 5.76515 20.4853 3.51472C18.2348 1.26428 15.1826 -1.66556e-06 12 -1.66556e-06C11.9813 -4.52212e-05 11.9627 -4.52212e-05 11.944 -1.66556e-06V-1.66556e-06ZM16.906 7.224C17.006 7.222 17.227 7.247 17.371 7.364C17.4667 7.44709 17.5277 7.56307 17.542 7.689C17.558 7.782 17.578 7.995 17.562 8.161C17.382 10.059 16.6 14.663 16.202 16.788C16.034 17.688 15.703 17.989 15.382 18.018C14.686 18.083 14.157 17.558 13.482 17.116C12.426 16.423 11.829 15.992 10.804 15.316C9.619 14.536 10.387 14.106 11.062 13.406C11.239 13.222 14.309 10.429 14.369 10.176C14.376 10.144 14.383 10.026 14.313 9.964C14.243 9.902 14.139 9.923 14.064 9.94C13.958 9.964 12.271 11.08 9.003 13.285C8.523 13.615 8.09 13.775 7.701 13.765C7.273 13.757 6.449 13.524 5.836 13.325C5.084 13.08 4.487 12.951 4.539 12.536C4.566 12.32 4.864 12.099 5.432 11.873C8.93 10.349 11.262 9.344 12.43 8.859C15.762 7.473 16.455 7.232 16.906 7.224V7.224Z" fill="#FF5722"></path>
    </g>
    <defs>
      <clipPath id="clip0_1_7">
        <rect width="24" height="24" fill="white"></rect>
      </clipPath>
    </defs>
  </symbol>
  <symbol fill="none" xmlns="http://www.w3.org/2000/svg" viewBox="0 0 24 24" id="twitter">
    <path d="M23.953 4.32351C23.0545 4.71911 22.1026 4.98024 21.128 5.09851C22.1541 4.48176 22.9224 3.51455 23.291 2.37551C22.34 2.93051 21.286 3.33451 20.164 3.55951C19.4238 2.76793 18.4429 2.24293 17.3736 2.06601C16.3044 1.88909 15.2067 2.07016 14.2509 2.5811C13.2952 3.09204 12.5349 3.90426 12.0881 4.89163C11.6412 5.879 11.533 6.98627 11.78 8.04151C7.69 7.84851 4.067 5.8835 1.64 2.91551C1.19879 3.66532 0.968664 4.52053 0.974 5.39051C0.974 7.10051 1.844 8.60351 3.162 9.48651C2.38086 9.46164 1.61697 9.25044 0.934 8.8705V8.93051C0.933557 10.0669 1.32627 11.1684 2.04551 12.0483C2.76474 12.9281 3.76621 13.532 4.88 13.7575C4.1583 13.9509 3.40241 13.9799 2.668 13.8425C2.98412 14.8205 3.59766 15.6754 4.42301 16.288C5.24837 16.9006 6.24435 17.2402 7.272 17.2595C5.53153 18.6255 3.38248 19.3668 1.17 19.3645C0.78 19.3645 0.391 19.3415 0 19.2975C2.25571 20.7418 4.87851 21.5085 7.557 21.5065C16.61 21.5065 21.555 14.0105 21.555 7.52151C21.555 7.31151 21.555 7.10151 21.54 6.89151C22.506 6.19637 23.3392 5.33332 24 4.34351L23.953 4.32351Z" fill="#FF5722"></path>
  </symbol>
</svg>